<svg id="Capa_1" enable-background="new 0 0 512 512" height="512" viewBox="0 0 512 512" width="512" xmlns="http://www.w3.org/2000/svg"><g><path d="m256 471.017-117.943-53.36-17.898 34.401 22.833 19.028c31.661 26.384 71.795 40.914 113.008 40.914s81.347-14.53 113.008-40.915l22.832-19.028-17.898-34.401z"/><path d="m241 326.803-76.632-32.842v-38.68h-68.552v110.338l145.184 65.684z"/><path d="m347.631 293.961-76.631 32.842v104.5l145.184-65.684v-110.338h-68.553z"/><path d="m241 225.281v-65.548c-31.402-6.887-54.982-34.066-54.982-71.598-51.397 25.068-87.466 76.841-90.043 137.146z"/><path d="m271 225.281v-65.548c31.402-6.887 54.982-34.066 54.982-71.598 51.397 25.068 87.466 76.841 90.043 137.146z"/><path d="m317.631 274.179v-18.898h-123.263v18.898l61.632 26.414z"/><path d="m295.982 91.387v-57.117l-39.982-34.27-39.982 34.27v57.117c0 22.081 17.9 39.982 39.982 39.982s39.982-17.901 39.982-39.982z"/></g></svg>